<svg width="24" height="25" viewBox="0 0 24 25" fill="none" xmlns="http://www.w3.org/2000/svg">
<g clip-path="url(#clip0)">
<path d="M22.125 16.3074V4.49487C22.125 3.46106 21.2838 2.61987 20.25 2.61987H3.75C2.71619 2.61987 1.875 3.46106 1.875 4.49487V20.9949C1.875 22.0287 2.71619 22.8699 3.75 22.8699H20.25C21.2838 22.8699 22.125 22.0287 22.125 20.9949C22.125 20.4771 22.5447 20.0574 23.0625 20.0574C23.5803 20.0574 24 20.4771 24 20.9949C24 23.0627 22.3178 24.7449 20.25 24.7449H3.75C1.68219 24.7449 0 23.0627 0 20.9949V4.49487C0 2.42706 1.68219 0.744873 3.75 0.744873H20.25C22.3178 0.744873 24 2.42706 24 4.49487V16.3074C24 16.8252 23.5803 17.2449 23.0625 17.2449C22.5447 17.2449 22.125 16.8252 22.125 16.3074ZM11.0625 9.65112V19.1199C11.0625 19.6377 11.4822 20.0574 12 20.0574C12.5178 20.0574 12.9375 19.6377 12.9375 19.1199V9.65112C12.9375 9.1333 12.5178 8.71362 12 8.71362C11.4822 8.71362 11.0625 9.1333 11.0625 9.65112ZM12 5.43237C11.4822 5.43237 11.0625 5.85205 11.0625 6.36987C11.0625 6.8877 11.4822 7.30737 12 7.30737C12.5178 7.30737 12.9375 6.8877 12.9375 6.36987C12.9375 5.85205 12.5178 5.43237 12 5.43237Z" fill="#7D7D93"/>
<path d="M11.0625 9.65112V19.1199C11.0625 19.6377 11.4822 20.0574 12 20.0574C12.5178 20.0574 12.9375 19.6377 12.9375 19.1199V9.65112C12.9375 9.1333 12.5178 8.71362 12 8.71362C11.4822 8.71362 11.0625 9.1333 11.0625 9.65112ZM12 5.43237C11.4822 5.43237 11.0625 5.85205 11.0625 6.36987C11.0625 6.8877 11.4822 7.30737 12 7.30737C12.5178 7.30737 12.9375 6.8877 12.9375 6.36987C12.9375 5.85205 12.5178 5.43237 12 5.43237Z" fill="#57B56B"/>
</g>
<defs>
<clipPath id="clip0">
<rect width="24" height="24" fill="white" transform="translate(0 0.744873)"/>
</clipPath>
</defs>
</svg>
