<svg width="21" height="20" viewBox="0 0 21 20" fill="none" xmlns="http://www.w3.org/2000/svg">
<path d="M0 1.42857C0 0.639593 0.626801 0 1.4 0H19.6C20.3732 0 21 0.639593 21 1.42857C21 2.21755 20.3732 2.85714 19.6 2.85714H1.4C0.626801 2.85714 0 2.21755 0 1.42857Z" fill="#57B56B"/>
<path d="M0 10C0 9.21102 0.626801 8.57143 1.4 8.57143H19.6C20.3732 8.57143 21 9.21102 21 10C21 10.789 20.3732 11.4286 19.6 11.4286H1.4C0.626801 11.4286 0 10.789 0 10Z" fill="#57B56B"/>
<path d="M0 18.5714C0 17.7825 0.626801 17.1429 1.4 17.1429H19.6C20.3732 17.1429 21 17.7825 21 18.5714C21 19.3604 20.3732 20 19.6 20H1.4C0.626801 20 0 19.3604 0 18.5714Z" fill="#57B56B"/>
</svg>
