<svg width="24" height="24" viewBox="0 0 24 24" fill="none" xmlns="http://www.w3.org/2000/svg">
<path d="M12 5.625C13.5509 5.625 14.8125 4.3634 14.8125 2.8125C14.8125 1.2616 13.5509 0 12 0C10.4491 0 9.1875 1.2616 9.1875 2.8125C9.1875 4.3634 10.4491 5.625 12 5.625ZM12 1.875C12.5169 1.875 12.9375 2.29559 12.9375 2.8125C12.9375 3.32941 12.5169 3.75 12 3.75C11.4831 3.75 11.0625 3.32941 11.0625 2.8125C11.0625 2.29559 11.4831 1.875 12 1.875ZM17.1562 14.9106C17.1562 16.0565 16.5458 17.1346 15.5632 17.7242L15.4955 17.7649C15.0742 18.0178 14.8125 18.4797 14.8125 18.9708V23.0625C14.8125 23.5803 14.3928 24 13.875 24C13.3572 24 12.9375 23.5803 12.9375 23.0625V18.9708C12.9375 17.825 13.548 16.7468 14.5305 16.1572L14.5983 16.1166C15.0196 15.8639 15.2812 15.4017 15.2812 14.9106V10.7344C15.2812 8.7973 13.4841 8.39062 11.9766 8.39062C10.4691 8.39062 8.67188 8.7973 8.67188 10.7344V14.8971C8.67188 15.3933 8.93756 15.8577 9.36511 16.1093L9.44476 16.1561C10.4427 16.7432 11.0625 17.8268 11.0625 18.9844V23.0625C11.0625 23.5803 10.6428 24 10.125 24C9.60718 24 9.1875 23.5803 9.1875 23.0625V18.9844C9.1875 18.4882 8.92181 18.0238 8.49426 17.7724L8.41461 17.7255C7.41669 17.1385 6.79688 16.0547 6.79688 14.8971V10.7344C6.79688 9.32208 7.36707 8.18372 8.44592 7.4425C9.32849 6.83606 10.5494 6.51562 11.9766 6.51562C13.4037 6.51562 14.6246 6.83606 15.5072 7.4425C16.5861 8.18372 17.1562 9.32208 17.1562 10.7344V14.9106ZM4.6875 7.5C6.2384 7.5 7.5 6.2384 7.5 4.6875C7.5 3.1366 6.2384 1.875 4.6875 1.875C3.1366 1.875 1.875 3.1366 1.875 4.6875C1.875 6.2384 3.1366 7.5 4.6875 7.5ZM4.6875 3.75C5.20441 3.75 5.625 4.17059 5.625 4.6875C5.625 5.20441 5.20441 5.625 4.6875 5.625C4.17059 5.625 3.75 5.20441 3.75 4.6875C3.75 4.17059 4.17059 3.75 4.6875 3.75ZM7.5 19.7812V23.0625C7.5 23.5803 7.08032 24 6.5625 24C6.04468 24 5.625 23.5803 5.625 23.0625V19.7812C5.625 19.2634 6.04468 18.8438 6.5625 18.8438C7.08032 18.8438 7.5 19.2634 7.5 19.7812ZM5.53125 9.35156C5.53125 9.86938 5.11157 10.2891 4.59375 10.2891C1.875 10.2891 1.875 11.566 1.875 12.0469V16.0312C1.875 16.4716 2.08521 16.892 2.4375 17.1562C3.25928 17.7726 3.75 18.754 3.75 19.7812V23.0625C3.75 23.5803 3.33032 24 2.8125 24C2.29468 24 1.875 23.5803 1.875 23.0625V19.7812C1.875 19.3409 1.66479 18.9205 1.3125 18.6562C0.490723 18.0399 0 17.0585 0 16.0312V12.0469C0 10.7796 0.520386 9.7782 1.50476 9.15125C2.27271 8.66199 3.31201 8.41406 4.59375 8.41406C5.11157 8.41406 5.53125 8.83374 5.53125 9.35156ZM19.3125 7.5C20.8634 7.5 22.125 6.2384 22.125 4.6875C22.125 3.1366 20.8634 1.875 19.3125 1.875C17.7616 1.875 16.5 3.1366 16.5 4.6875C16.5 6.2384 17.7616 7.5 19.3125 7.5ZM19.3125 3.75C19.8294 3.75 20.25 4.17059 20.25 4.6875C20.25 5.20441 19.8294 5.625 19.3125 5.625C18.7956 5.625 18.375 5.20441 18.375 4.6875C18.375 4.17059 18.7956 3.75 19.3125 3.75ZM18.375 19.7812V23.0625C18.375 23.5803 17.9553 24 17.4375 24C16.9197 24 16.5 23.5803 16.5 23.0625V19.7812C16.5 19.2634 16.9197 18.8438 17.4375 18.8438C17.9553 18.8438 18.375 19.2634 18.375 19.7812ZM24 12.0469V16.0312C24 17.0585 23.5093 18.0399 22.6875 18.6562C22.3352 18.9205 22.125 19.3409 22.125 19.7812V23.0625C22.125 23.5803 21.7053 24 21.1875 24C20.6697 24 20.25 23.5803 20.25 23.0625V19.7812C20.25 18.754 20.7407 17.7726 21.5625 17.1562C21.9148 16.892 22.125 16.4716 22.125 16.0312V12.0469C22.125 11.566 22.125 10.2891 19.4062 10.2891C18.8884 10.2891 18.4688 9.86938 18.4688 9.35156C18.4688 8.83374 18.8884 8.41406 19.4062 8.41406C20.688 8.41406 21.7273 8.66199 22.4952 9.15125C23.4796 9.7782 24 10.7796 24 12.0469Z" fill="#7D7D93"/>
<path d="M12 5.625C13.5509 5.625 14.8125 4.3634 14.8125 2.8125C14.8125 1.2616 13.5509 0 12 0C10.4491 0 9.1875 1.2616 9.1875 2.8125C9.1875 4.3634 10.4491 5.625 12 5.625ZM12 1.875C12.5169 1.875 12.9375 2.29559 12.9375 2.8125C12.9375 3.32941 12.5169 3.75 12 3.75C11.4831 3.75 11.0625 3.32941 11.0625 2.8125C11.0625 2.29559 11.4831 1.875 12 1.875ZM17.1562 14.9106C17.1562 16.0565 16.5458 17.1346 15.5632 17.7242L15.4955 17.7649C15.0742 18.0178 14.8125 18.4797 14.8125 18.9708V23.0625C14.8125 23.5803 14.3928 24 13.875 24C13.3572 24 12.9375 23.5803 12.9375 23.0625V18.9708C12.9375 17.825 13.548 16.7468 14.5305 16.1572L14.5983 16.1166C15.0196 15.8639 15.2812 15.4017 15.2812 14.9106V10.7344C15.2812 8.7973 13.4841 8.39062 11.9766 8.39062C10.4691 8.39062 8.67188 8.7973 8.67188 10.7344V14.8971C8.67188 15.3933 8.93756 15.8577 9.36511 16.1093L9.44476 16.1561C10.4427 16.7432 11.0625 17.8268 11.0625 18.9844V23.0625C11.0625 23.5803 10.6428 24 10.125 24C9.60718 24 9.1875 23.5803 9.1875 23.0625V18.9844C9.1875 18.4882 8.92181 18.0238 8.49426 17.7724L8.41461 17.7255C7.41669 17.1385 6.79688 16.0547 6.79688 14.8971V10.7344C6.79688 9.32208 7.36707 8.18372 8.44592 7.4425C9.32849 6.83606 10.5494 6.51562 11.9766 6.51562C13.4037 6.51562 14.6246 6.83606 15.5072 7.4425C16.5861 8.18372 17.1562 9.32208 17.1562 10.7344V14.9106Z" fill="#57B56B"/>
</svg>
