<svg width="86" height="126" viewBox="0 0 86 126" fill="none" xmlns="http://www.w3.org/2000/svg">
<path d="M0.66294 103.749C4.5098 100.694 6.26351 99.28 5.92408 99.5063C17.0121 90.3417 25.7241 82.8177 32.0601 76.9343C38.5092 71.0509 43.9401 64.8846 48.3527 58.4354C52.7652 51.9863 54.9715 45.7068 54.9715 39.5971C54.9715 34.9583 53.8967 31.3377 51.7469 28.7354C49.5972 26.1331 46.3727 24.832 42.0732 24.832C37.7738 24.832 34.3795 26.4726 31.8904 29.7537C29.5144 32.9217 28.3264 37.4474 28.3264 43.3308H0.323512C0.549797 33.7137 2.58637 25.6806 6.43323 19.2314C10.3932 12.7823 15.5412 8.03027 21.8772 4.97542C28.3264 1.92056 35.4544 0.393128 43.2612 0.393128C56.7252 0.393128 66.8515 3.84398 73.6401 10.7457C80.5418 17.6474 83.9927 26.6423 83.9927 37.7303C83.9927 49.8366 79.8629 61.0943 71.6035 71.5034C63.3441 81.7994 52.8218 91.8691 40.0367 101.713H85.8595V125.303H0.66294V103.749Z" fill="url(#paint0_linear)"/>
<defs>
<linearGradient id="paint0_linear" x1="58" y1="1" x2="58" y2="161.571" gradientUnits="userSpaceOnUse">
<stop stop-color="#3F3F55"/>
<stop offset="1" stop-color="#282836" stop-opacity="0"/>
</linearGradient>
</defs>
</svg>
