<svg width="90" height="90" viewBox="0 0 90 90" fill="none" xmlns="http://www.w3.org/2000/svg">
<path fill-rule="evenodd" clip-rule="evenodd" d="M77.1429 45C77.1429 62.752 62.752 77.1429 45 77.1429C27.248 77.1429 12.8571 62.752 12.8571 45C12.8571 27.248 27.248 12.8571 45 12.8571C62.752 12.8571 77.1429 27.248 77.1429 45ZM90 45C90 69.8528 69.8528 90 45 90C20.1472 90 0 69.8528 0 45C0 20.1472 20.1472 0 45 0C69.8528 0 90 20.1472 90 45ZM56.2681 38.2188V46.6599L70.7144 32.2136L56.2681 17.7656V26.2064H41.213V38.2188H56.2681ZM34.2817 69.8642L19.8354 55.4162L34.2817 40.9682V49.409H49.3369V61.4234H34.2817V69.8642Z" fill="#57B56B"/>
</svg>
