<svg width="87" height="315" viewBox="0 0 87 315" fill="none" xmlns="http://www.w3.org/2000/svg">
<path d="M1.89873 38.0697C2.3513 25.9634 6.3113 16.6291 13.7787 10.0668C21.2462 3.50456 31.3724 0.223416 44.1576 0.223416C52.6433 0.223416 59.8845 1.69427 65.881 4.63599C71.9907 7.5777 76.573 11.5943 79.6279 16.6857C82.7959 21.7771 84.3799 27.4908 84.3799 33.8268C84.3799 41.2943 82.513 47.404 78.7793 52.156C75.0456 56.7949 70.6896 59.9629 65.7113 61.66V62.3389C72.1605 64.4886 77.2519 68.0526 80.9856 73.0309C84.7193 78.0091 86.5862 84.4017 86.5862 92.2086C86.5862 99.2234 84.9456 105.446 81.6645 110.877C78.4965 116.195 73.801 120.381 67.5782 123.436C61.4684 126.491 54.1707 128.018 45.685 128.018C32.1079 128.018 21.2462 124.681 13.0999 118.005C5.06673 111.33 0.823874 101.26 0.371302 87.796H28.5439C28.657 92.7743 30.0713 96.7343 32.7867 99.676C35.5022 102.505 39.4622 103.919 44.6667 103.919C49.0793 103.919 52.4736 102.674 54.8496 100.185C57.3387 97.5829 58.5833 94.1886 58.5833 90.0023C58.5833 84.5714 56.8296 80.668 53.3222 78.292C49.9279 75.8029 44.4404 74.5583 36.8599 74.5583H31.429V50.968H36.8599C42.6302 50.968 47.269 50.0063 50.7764 48.0828C54.397 46.0463 56.2073 42.4823 56.2073 37.3909C56.2073 33.3177 55.0759 30.1497 52.813 27.8868C50.5502 25.624 47.4387 24.4926 43.4787 24.4926C39.1793 24.4926 35.9547 25.7937 33.805 28.396C31.7684 30.9983 30.5804 34.2228 30.241 38.0697H1.89873ZM36.7737 218.093V191.109H83.7846V315H53.5754V218.093H36.7737Z" fill="url(#paint0_linear)"/>
<defs>
<linearGradient id="paint0_linear" x1="63" y1="1" x2="63" y2="161.571" gradientUnits="userSpaceOnUse">
<stop stop-color="#3F3F55"/>
<stop offset="1" stop-color="#282836" stop-opacity="0"/>
</linearGradient>
</defs>
</svg>
