<svg width="24" height="24" viewBox="0 0 24 24" fill="none" xmlns="http://www.w3.org/2000/svg">
<g clip-path="url(#clip0)">
<path d="M11.625 16.875C12.1428 16.875 12.5625 17.2947 12.5625 17.8125C12.5625 18.3303 12.1428 18.75 11.625 18.75H10.3125C9.79468 18.75 9.375 18.3303 9.375 17.8125C9.375 17.2947 9.79468 16.875 10.3125 16.875H11.625ZM19.3125 11.8594C19.3125 11.3416 18.8928 10.9219 18.375 10.9219H10.3125C9.79468 10.9219 9.375 11.3416 9.375 11.8594C9.375 12.3772 9.79468 12.7969 10.3125 12.7969H18.375C18.8928 12.7969 19.3125 12.3772 19.3125 11.8594ZM10.3125 7.17188H18.375C18.8928 7.17188 19.3125 6.7522 19.3125 6.23438C19.3125 5.71655 18.8928 5.29688 18.375 5.29688H10.3125C9.79468 5.29688 9.375 5.71655 9.375 6.23438C9.375 6.7522 9.79468 7.17188 10.3125 7.17188ZM6.5625 16.875H5.625C5.10718 16.875 4.6875 17.2947 4.6875 17.8125C4.6875 18.3303 5.10718 18.75 5.625 18.75H6.5625C7.08032 18.75 7.5 18.3303 7.5 17.8125C7.5 17.2947 7.08032 16.875 6.5625 16.875ZM6.5625 10.9219H5.625C5.10718 10.9219 4.6875 11.3416 4.6875 11.8594C4.6875 12.3772 5.10718 12.7969 5.625 12.7969H6.5625C7.08032 12.7969 7.5 12.3772 7.5 11.8594C7.5 11.3416 7.08032 10.9219 6.5625 10.9219ZM6.5625 5.29688H5.625C5.10718 5.29688 4.6875 5.71655 4.6875 6.23438C4.6875 6.7522 5.10718 7.17188 5.625 7.17188H6.5625C7.08032 7.17188 7.5 6.7522 7.5 6.23438C7.5 5.71655 7.08032 5.29688 6.5625 5.29688ZM23.7255 22.3995C24.0916 22.7657 24.0916 23.3593 23.7255 23.7253C23.5424 23.9084 23.3024 24 23.0625 24C22.8226 24 22.5826 23.9084 22.3995 23.7255L20.8136 22.1396C20.1821 22.517 19.4442 22.7344 18.6562 22.7344C16.3301 22.7344 14.4375 20.8418 14.4375 18.5156C14.4375 16.1895 16.3301 14.2969 18.6562 14.2969C20.9824 14.2969 22.875 16.1895 22.875 18.5156C22.875 19.3764 22.6157 20.1775 22.1713 20.8456L23.7255 22.3995ZM18.6562 20.8594C19.9486 20.8594 21 19.808 21 18.5156C21 17.2233 19.9486 16.1719 18.6562 16.1719C17.3639 16.1719 16.3125 17.2233 16.3125 18.5156C16.3125 19.808 17.3639 20.8594 18.6562 20.8594ZM20.25 0H3.75C1.68219 0 0 1.68219 0 3.75V20.25C0 22.3178 1.68219 24 3.75 24H13.4062C13.9241 24 14.3438 23.5803 14.3438 23.0625C14.3438 22.5447 13.9241 22.125 13.4062 22.125H3.75C2.71619 22.125 1.875 21.2838 1.875 20.25V3.75C1.875 2.71619 2.71619 1.875 3.75 1.875H20.25C21.2838 1.875 22.125 2.71619 22.125 3.75V13.0312C22.125 13.5491 22.5447 13.9688 23.0625 13.9688C23.5803 13.9688 24 13.5491 24 13.0312V3.75C24 1.68219 22.3178 0 20.25 0Z" fill="#7D7D93"/>
<path d="M23.7255 22.3995C24.0916 22.7657 24.0916 23.3593 23.7255 23.7253C23.5424 23.9084 23.3024 24 23.0625 24C22.8226 24 22.5826 23.9084 22.3995 23.7255L20.8136 22.1396C20.1821 22.517 19.4442 22.7344 18.6562 22.7344C16.3301 22.7344 14.4375 20.8418 14.4375 18.5156C14.4375 16.1895 16.3301 14.2969 18.6562 14.2969C20.9824 14.2969 22.875 16.1895 22.875 18.5156C22.875 19.3764 22.6157 20.1775 22.1713 20.8456L23.7255 22.3995ZM18.6562 20.8594C19.9486 20.8594 21 19.808 21 18.5156C21 17.2233 19.9486 16.1719 18.6562 16.1719C17.3639 16.1719 16.3125 17.2233 16.3125 18.5156C16.3125 19.808 17.3639 20.8594 18.6562 20.8594Z" fill="#57B56B"/>
</g>
<defs>
<clipPath id="clip0">
<rect width="24" height="24" fill="white"/>
</clipPath>
</defs>
</svg>
