<svg width="24" height="24" viewBox="0 0 24 24" fill="none" xmlns="http://www.w3.org/2000/svg">
<path d="M22.676 18.8264C22.1228 21.8242 19.5057 24 16.4531 24C12.9639 24 10.125 21.1611 10.125 17.6719C10.125 14.1826 12.9639 11.3438 16.4531 11.3438C17.0317 11.3438 17.6056 11.4221 18.1584 11.5765C18.6572 11.7156 18.9485 12.2327 18.8091 12.7315C18.67 13.2303 18.1527 13.5216 17.6541 13.3823C17.2654 13.2739 16.8613 13.2188 16.4531 13.2188C13.9977 13.2188 12 15.2164 12 17.6719C12 20.1273 13.9977 22.125 16.4531 22.125C18.6013 22.125 20.443 20.5946 20.8321 18.4861C20.9262 17.9769 21.4151 17.6402 21.9241 17.7343C22.4333 17.8282 22.7699 18.3171 22.676 18.8264ZM8.8125 22.125H5.0625C4.02869 22.125 3.1875 21.2838 3.1875 20.25V7.92188H5.95312C7.76239 7.92188 9.23438 6.44989 9.23438 4.64062C9.23438 4.1228 8.8147 3.70312 8.29688 3.70312C7.77905 3.70312 7.35938 4.1228 7.35938 4.64062C7.35938 5.41608 6.72858 6.04688 5.95312 6.04688H3.34827C3.43506 5.85681 3.55536 5.6814 3.70679 5.52869L6.80255 2.40546C7.13654 2.06836 7.60052 1.875 8.07513 1.875H16.5884C17.6224 1.875 18.4634 2.71619 18.4634 3.75V8.71875C18.4634 9.23657 18.8833 9.65625 19.4009 9.65625C19.9188 9.65625 20.3384 9.23657 20.3384 8.71875V3.75C20.3384 1.68219 18.6562 0 16.5884 0H8.07513C7.10376 0 6.15454 0.395691 5.47083 1.08545L2.37506 4.20868C1.68988 4.90009 1.3125 5.81671 1.3125 6.7901V20.25C1.3125 22.3178 2.99469 24 5.0625 24H8.8125C9.33032 24 9.75 23.5803 9.75 23.0625C9.75 22.5447 9.33032 22.125 8.8125 22.125ZM15.241 16.5872C14.8748 16.2209 14.2813 16.2209 13.9153 16.5872C13.5491 16.9532 13.5491 17.5468 13.9151 17.9128L15.2955 19.2933C15.6149 19.6126 16.0353 19.7723 16.4557 19.7723C16.8734 19.7723 17.291 19.6146 17.6098 19.2991L21.7064 15.2444C22.0745 14.8802 22.0774 14.2866 21.7132 13.9186C21.349 13.5505 20.7554 13.5474 20.3873 13.9118L16.4566 17.8026L15.241 16.5872Z" fill="#7D7D93"/>
<path d="M22.676 18.8264C22.1228 21.8242 19.5057 24 16.4531 24C12.9639 24 10.125 21.1611 10.125 17.6719C10.125 14.1826 12.9639 11.3438 16.4531 11.3438C17.0317 11.3438 17.6056 11.4221 18.1584 11.5765C18.6572 11.7156 18.9485 12.2327 18.8091 12.7315C18.67 13.2303 18.1527 13.5216 17.6541 13.3823C17.2654 13.2739 16.8613 13.2188 16.4531 13.2188C13.9977 13.2188 12 15.2164 12 17.6719C12 20.1273 13.9977 22.125 16.4531 22.125C18.6013 22.125 20.443 20.5946 20.8321 18.4861C20.9262 17.9769 21.4151 17.6402 21.9241 17.7343C22.4333 17.8282 22.7699 18.3171 22.676 18.8264ZM15.241 16.5872C14.8748 16.2209 14.2813 16.2209 13.9153 16.5872C13.5491 16.9532 13.5491 17.5468 13.9151 17.9128L15.2955 19.2933C15.6149 19.6126 16.0353 19.7723 16.4557 19.7723C16.8734 19.7723 17.291 19.6146 17.6098 19.2991L21.7064 15.2444C22.0745 14.8802 22.0774 14.2866 21.7132 13.9186C21.349 13.5505 20.7554 13.5474 20.3873 13.9118L16.4566 17.8026L15.241 16.5872Z" fill="#57B56B"/>
</svg>
