<svg width="25" height="24" viewBox="0 0 25 24" fill="none" xmlns="http://www.w3.org/2000/svg">
<g clip-path="url(#clip0)">
<path d="M23.108 6.61196C23.6257 6.61196 24.0453 6.1923 24.0453 5.6746V4.69037C24.0453 2.10409 21.9412 0 19.3549 0C19.3549 0 4.66141 0.0022028 4.62519 0.00646779C3.38838 0.0496801 2.20033 0.580414 1.34395 1.47775C0.466161 2.39749 0.00854175 3.59375 0.0516135 4.85239C0.0498325 4.87625 0.0488951 18.3723 0.0488951 18.3723C0.0488951 21.4754 2.57349 24 5.67662 24H19.355C21.9412 24 24.0453 21.8959 24.0453 19.3096V12.1928C24.0453 9.60654 21.9412 7.50245 19.355 7.50245H4.73565C3.23067 7.50245 1.99682 6.32616 1.92666 4.8245C1.891 4.06093 2.16569 3.33204 2.70008 2.77206C3.2422 2.20402 4.00357 1.87828 4.7889 1.87828C4.81659 1.87828 19.3549 1.87472 19.3549 1.87472C20.9074 1.87472 22.1705 3.13782 22.1705 4.69037V5.6746C22.1706 6.1923 22.5903 6.61196 23.108 6.61196ZM4.73565 9.37717H19.3549C20.9075 9.37717 22.1706 10.6403 22.1706 12.1928V19.3096C22.1706 20.8622 20.9075 22.1253 19.3549 22.1253H5.67662C3.60721 22.1253 1.92362 20.4417 1.92362 18.3723V8.44361C2.70763 9.03086 3.68178 9.37717 4.73565 9.37717ZM20.2959 15.7512C20.2959 16.3983 19.7713 16.9229 19.1242 16.9229C17.57 16.8612 17.5704 14.641 19.1242 14.5795C19.7713 14.5795 20.2959 15.1041 20.2959 15.7512ZM20.2959 4.69037C20.2959 4.17266 19.8762 3.75301 19.3585 3.75301H4.7357C3.49201 3.8025 3.49295 5.57866 4.7357 5.62773H19.3585C19.8762 5.62773 20.2959 5.20807 20.2959 4.69037Z" fill="#7D7D93"/>
<path d="M20.2963 4.69029C20.2963 4.17259 19.8767 3.75293 19.359 3.75293H4.73613C3.49244 3.80242 3.49337 5.57858 4.73613 5.62765H19.359C19.8766 5.62765 20.2963 5.20799 20.2963 4.69029Z" fill="#57B56B"/>
</g>
<defs>
<clipPath id="clip0">
<rect width="24" height="24" fill="white" transform="translate(0.046875)"/>
</clipPath>
</defs>
</svg>
